# xmcd
# 
# Track frame offsets:
#     150
#     22485
#     42259
#     64552
# 
# Disc length: 1124
# 
# Revision: 11
# Processed by: cddbd v1.5.2PL0 Copyright (c) Steve Scherf et al.
# Submitted via: fre:ac v1.0.31
# 
DISCID=32046204
DTITLE=スフィア - 情熱CONTINUE
DYEAR=2015
DGENRE=Anime
TTITLE0=情熱CONTINUE
TTITLE1=夕立ちの欠片
TTITLE2=情熱CONTINUE (Off Vocal)
TTITLE3=夕立ちの欠片 (Off Vocal)
EXTD=YEAR: 2003
EXTT0=
EXTT1=
EXTT2=
EXTT3=
PLAYORDER=
